<?xml version="1.0" encoding="UTF-8"?>
<svg xmlns="http://www.w3.org/2000/svg" version="1.1" viewBox="0 0 1000 1000">
  <!-- Generator: Adobe Illustrator 28.6.0, SVG Export Plug-In . SVG Version: 1.2.0 Build 709)  -->
  <g>
    <g id="Layer_1">
      <g>
        <path d="M430.87,514.78l6.49-8.93h8.72c2.08,0,4.51,0,6.18.1-.93-1.25-2.39-3.37-3.53-5.03l-6.23-9.18-16.29,23.04h-12.71l22.26-31.39c1.45-2.02,3.58-3.89,6.95-3.89s5.34,1.71,6.85,3.89l21.69,31.39h-40.37Z"/>
        <path d="M524.32,514.78h-14.37l-7.73-9.18h-16.5v9.18h-10.74v-17.75h30.2c3.32,0,5.92-1.5,5.92-3.89,0-2.7-2.23-4.05-5.92-4.05h-30.2l7.01-9.03h22.31c7.89,0,17.85,2.49,17.85,12.4,0,5.4-3.37,9.86-9.08,11,1.19.88,2.49,2.13,4.88,4.57l6.38,6.75Z"/>
        <path d="M535.37,480.06l-5.14,13.91h-4.46v-13.91h9.6Z"/>
        <path d="M571.69,493.92c8.46,0,13.02,3.17,13.02,9.5,0,7.11-4.31,11.36-14.89,11.36h-32.33l6.9-8.93h26.26c2.54,0,3.68-.73,3.68-2.54s-1.14-2.49-3.68-2.49h-18.89c-8.93,0-13.02-4-13.02-9.96,0-6.54,4.36-10.79,14.89-10.79h30.15l-6.9,9.03h-24.08c-2.49,0-3.68.62-3.68,2.39s1.19,2.44,3.68,2.44h18.89Z"/>
        <path d="M490.13,523.17l-2.48,6.55h-.83l-2.07-5.37-2.07,5.37h-.83l-2.47-6.55h.85l2.06,5.57,2.1-5.57h.76l2.09,5.57,2.08-5.57h.81Z"/>
        <path d="M491.55,526.45c0-1.94,1.42-3.33,3.34-3.33s3.33,1.38,3.33,3.33-1.41,3.34-3.33,3.34-3.34-1.4-3.34-3.34ZM497.32,526.45c0-1.53-1.03-2.55-2.43-2.55s-2.44,1.02-2.44,2.55,1.05,2.55,2.44,2.55,2.43-1.02,2.43-2.55Z"/>
        <path d="M504.25,523.12v.86c-.07,0-.15-.01-.21-.01-1.37,0-2.2.87-2.2,2.42v3.34h-.88v-6.55h.85v1.28c.41-.87,1.25-1.33,2.45-1.33Z"/>
        <path d="M509.21,526.44l-1.54,1.42v1.87h-.88v-9.24h.88v6.26l3.91-3.57h1.1l-2.8,2.68,3.06,3.87h-1.08l-2.64-3.29Z"/>
        <path d="M514.09,528.98l.4-.7c.52.41,1.41.73,2.33.73,1.25,0,1.76-.42,1.76-1.07,0-1.71-4.25-.36-4.25-2.95,0-1.07.92-1.87,2.59-1.87.85,0,1.77.24,2.32.61l-.39.71c-.57-.4-1.26-.56-1.93-.56-1.18,0-1.71.46-1.71,1.08,0,1.77,4.25.44,4.25,2.95,0,1.13-1,1.87-2.7,1.87-1.08,0-2.13-.35-2.67-.81Z"/>
      </g>
    </g>
  </g>
</svg>